<svg width="19" height="16" viewBox="0 0 19 16" fill="none" xmlns="http://www.w3.org/2000/svg">
  <path d="M15.81 0.570009C15.2284 0.383254 14.6155 0.314202 14.0069 0.366883C13.3983 0.419564 12.8064 0.592922 12.2655 0.876841C11.7247 1.16076 11.2458 1.54955 10.8568 2.02054C10.4679 2.49152 10.1766 3.03525 10 3.62001C9.82582 3.03372 9.53597 2.48827 9.14755 2.01582C8.75914 1.54337 8.28003 1.15351 7.7385 0.869228C7.19696 0.584947 6.60398 0.412009 5.99453 0.360618C5.38508 0.309227 4.7715 0.380425 4.19001 0.570009C2.99272 1.00336 2.01059 1.88489 1.45087 3.02858C0.891152 4.17227 0.797621 5.48867 1.19001 6.70001C1.95001 9.14001 8.98001 15.7 9.88001 15.7C10.78 15.7 17.97 9.17001 18.73 6.70001C19.1266 5.49884 19.0444 4.19093 18.5004 3.04892C17.9564 1.9069 16.9926 1.0189 15.81 0.570009Z" fill="#009879"/>
</svg>
