<svg width="24" height="22" viewBox="0 0 24 22" fill="none" xmlns="http://www.w3.org/2000/svg">
  <path d="M18.9719 2.084C18.274 1.85989 17.5384 1.77703 16.8081 1.84025C16.0779 1.90346 15.3675 2.11149 14.7185 2.4522C14.0695 2.7929 13.4948 3.25945 13.0281 3.82463C12.5613 4.38981 12.2118 5.04229 11.9999 5.744C11.7908 5.04046 11.443 4.38591 10.9769 3.81897C10.5108 3.25204 9.93589 2.7842 9.28605 2.44306C8.63621 2.10192 7.92463 1.8944 7.19329 1.83273C6.46194 1.77106 5.72566 1.8565 5.02787 2.084C3.59111 2.60402 2.41256 3.66185 1.7409 5.03428C1.06924 6.40671 0.956999 7.98639 1.42787 9.44C2.33987 12.368 10.7759 20.24 11.8559 20.24C12.9359 20.24 21.5639 12.404 22.4759 9.44C22.9518 7.9986 22.8531 6.42911 22.2003 5.05869C21.5475 3.68827 20.391 2.62267 18.9719 2.084V2.084Z" stroke="#009879" stroke-width="2" stroke-linejoin="round"/>
</svg>
